<svg width="230" height="230" viewBox="0 0 230 230" fill="none" xmlns="http://www.w3.org/2000/svg">
<circle cx="115" cy="115" r="115" fill="#242424"/>
<g filter="url(#filter0_i_51_324)">
<circle cx="115" cy="115" r="100" fill="white"/>
</g>
<circle cx="115" cy="115" r="95" fill="#242424"/>
<g filter="url(#filter1_i_51_324)">
<path d="M54.1502 131.494C45.2009 131.494 40 127.31 40 120.23H50.8235C50.8235 122.299 51.9949 123.448 54.1034 123.448C55.8839 123.448 56.9615 122.713 56.9615 121.425C56.9615 119.862 55.3216 118.851 51.5732 118.253C43.8421 116.966 40.2343 113.701 40.2343 108.092C40.2343 101.793 45.2478 97.931 53.4943 97.931C61.975 97.931 67.2697 102.161 67.4102 108.966H56.821C56.821 106.943 55.6965 105.839 53.6817 105.839C51.948 105.839 50.8704 106.621 50.8704 107.862C50.8704 109.333 52.2292 110.161 56.2119 110.897C64.4115 112.414 68.0193 115.54 68.0193 121.057C68.0193 127.632 62.9121 131.494 54.1502 131.494Z" fill="white"/>
<path d="M72.0628 130.805V106.299H82.7457V130.805H72.0628ZM71.2662 97.7471C71.2662 94.3448 73.7027 92 77.4043 92C81.0121 92 83.4954 94.3448 83.4954 97.7471C83.4954 101.195 81.0121 103.54 77.4043 103.54C73.7027 103.54 71.2662 101.195 71.2662 97.7471Z" fill="white"/>
<path d="M101.619 130.805C94.2626 130.805 90.5142 127.494 90.5142 121.011V114.391H86.0629V106.299H88.2651C91.217 106.299 91.9667 105.609 92.3884 102.943L92.9038 99.8621H101.197V106.299H106.913V114.345H101.197V118.897C101.197 121.241 102.275 122.253 104.805 122.253H107.195V130.805H101.619Z" fill="white"/>
<path d="M164.115 131.448C161.678 131.448 159.523 130.897 157.696 129.885V140H147.013V106.299H154.603L155.587 108.736C157.742 106.759 160.647 105.655 164.115 105.655C171.658 105.655 176.766 110.897 176.766 118.575C176.766 126.253 171.658 131.448 164.115 131.448ZM157.414 118.575C157.414 121.195 159.195 122.989 161.866 122.989C164.536 122.989 166.364 121.195 166.364 118.575C166.364 115.908 164.536 114.115 161.866 114.115C159.195 114.115 157.414 115.908 157.414 118.575Z" fill="white"/>
<path d="M179.458 118.805L178.895 98.6207H189.859L189.297 118.805H179.458ZM178.802 126.161C178.802 123.126 181.098 120.92 184.377 120.92C187.704 120.92 190 123.126 190 126.161C190 129.241 187.704 131.402 184.377 131.402C181.098 131.402 178.802 129.241 178.802 126.161Z" fill="white"/>
<path d="M126.547 131.494C117.223 131.494 111.506 126.253 111.506 117.425V98.6207H122.798V116.828C122.798 119.77 124.064 121.287 126.547 121.287C129.077 121.287 130.295 119.77 130.295 116.828V105.621H128L136 98.6207L144 105.621H141.634V117.425C141.634 126.253 135.918 131.494 126.547 131.494Z" fill="white"/>
<path d="M40 136H107V140H40V136Z" fill="white"/>
<path d="M111 90H177V94H111V90Z" fill="white"/>
</g>
<defs>
<filter id="filter0_i_51_324" x="15" y="15" width="200" height="204" filterUnits="userSpaceOnUse" color-interpolation-filters="sRGB">
<feFlood flood-opacity="0" result="BackgroundImageFix"/>
<feBlend mode="normal" in="SourceGraphic" in2="BackgroundImageFix" result="shape"/>
<feColorMatrix in="SourceAlpha" type="matrix" values="0 0 0 0 0 0 0 0 0 0 0 0 0 0 0 0 0 0 127 0" result="hardAlpha"/>
<feOffset dy="4"/>
<feGaussianBlur stdDeviation="2"/>
<feComposite in2="hardAlpha" operator="arithmetic" k2="-1" k3="1"/>
<feColorMatrix type="matrix" values="0 0 0 0 0 0 0 0 0 0 0 0 0 0 0 0 0 0 0.25 0"/>
<feBlend mode="normal" in2="shape" result="effect1_innerShadow_51_324"/>
</filter>
<filter id="filter1_i_51_324" x="40" y="90" width="150" height="54" filterUnits="userSpaceOnUse" color-interpolation-filters="sRGB">
<feFlood flood-opacity="0" result="BackgroundImageFix"/>
<feBlend mode="normal" in="SourceGraphic" in2="BackgroundImageFix" result="shape"/>
<feColorMatrix in="SourceAlpha" type="matrix" values="0 0 0 0 0 0 0 0 0 0 0 0 0 0 0 0 0 0 127 0" result="hardAlpha"/>
<feOffset dy="4"/>
<feGaussianBlur stdDeviation="2"/>
<feComposite in2="hardAlpha" operator="arithmetic" k2="-1" k3="1"/>
<feColorMatrix type="matrix" values="0 0 0 0 0 0 0 0 0 0 0 0 0 0 0 0 0 0 0.25 0"/>
<feBlend mode="normal" in2="shape" result="effect1_innerShadow_51_324"/>
</filter>
</defs>
</svg>
